<svg id="Layer_1" data-name="Layer 1" xmlns="http://www.w3.org/2000/svg" viewBox="0 0 425 90"><title>Artboard 1</title><path d="M64.23,25.62H81.88v5.22H70.6v7.43H81.22V43.5H70.6V57.21H64.23Z" fill="#fff"/><path d="M84.76,25.27h6.1v5.22h-6.1Zm0,8.14h6.1v23.8h-6.1Z" fill="#fff"/><path d="M95.16,33.41H101v3.18h.09c1.23-2.3,3-3.8,5.48-3.8a8.3,8.3,0,0,1,1.11.09v5.84c-.62,0-1.28-.09-1.9-.09-2.13,0-4.52,1.1-4.52,4.29V57.21h-6.1Z" fill="#fff"/><path d="M114.36,49.42v.8c0,2.08,1.11,3.45,3.19,3.45,1.85,0,3.09-.93,3.09-2.83a2.8,2.8,0,0,0-2.21-2.7l-4.29-1.55c-3.36-1.19-5.09-3.27-5.09-6.63,0-3.94,2.48-7.17,8.76-7.17,5.53,0,8.14,2.48,8.14,6.77v1h-5.48c0-2.39-.71-3.58-2.7-3.58a2.59,2.59,0,0,0-2.88,2.56c0,1.15.62,2.13,2.66,2.79l3.67,1.24c3.85,1.28,5.26,3.23,5.26,6.81,0,5-3.71,7.48-8.85,7.48-6.85,0-8.76-3-8.76-7.56v-.85Z" fill="#fff"/><path d="M130.86,26.59H137v6.82h3.54v4.16H137V50.44c0,1.86.4,2.61,2.17,2.61a11.39,11.39,0,0,0,1.37-.09v4.25a36.58,36.58,0,0,1-4,.27c-4.78,0-5.67-1.46-5.67-6.29V37.57h-3.09V33.41h3.09Z" fill="#fff"/><path d="M153.43,25.62h10.66c5.22,0,9,1.95,9,8,0,3.41-1.63,6-4.77,6.9v.09c3.49.49,5.75,3.14,5.75,7.34,0,5-2.44,9.25-9.87,9.25H153.43Zm6.37,13h1.81c3.5,0,5.09-1.19,5.09-4.16s-1.46-4.11-4.6-4.11h-2.3Zm0,13.94h2.48c3.05,0,5.13-1.1,5.13-4.78S165.33,43,162.54,43H159.8Z" fill="#fff"/><path d="M177.81,40.71v-.58c0-5.48,3.76-7.34,8.36-7.34,7.26,0,8.63,3,8.63,7.3V52.61a9.7,9.7,0,0,0,.75,4.6h-5.84a10,10,0,0,1-.75-2.48h-.09c-1.42,2.48-3.14,3.1-6.06,3.1-4.25,0-5.75-3.63-5.75-6.81,0-4.47,1.81-6.29,6-7.44l3.46-.93c1.81-.48,2.43-1.19,2.43-2.78,0-1.82-.8-2.92-2.83-2.92-1.86,0-2.83,1.24-2.83,3.09v.67ZM189,45.31a7.4,7.4,0,0,1-2.61,1.19c-2.48.54-3.45,1.73-3.45,3.85,0,1.82.66,3.32,2.3,3.32A3.6,3.6,0,0,0,189,50Z" fill="#fff"/><path d="M199.14,33.41H205v2.52h.08a5.78,5.78,0,0,1,5.4-3.14c5,0,7.3,3.67,7.3,12.52s-2.3,12.52-7.3,12.52A5.71,5.71,0,0,1,205.33,55h-.09V65h-6.1Zm9.33,19.73c2.66,0,3.19-2.65,3.19-7.83s-.53-7.83-3.19-7.83-3.23,2.65-3.23,7.83S205.77,53.14,208.47,53.14Z" fill="#fff"/><path d="M222.59,26.59h6.1v6.82h3.54v4.16h-3.54V50.44c0,1.86.4,2.61,2.17,2.61a11.25,11.25,0,0,0,1.37-.09v4.25a36.24,36.24,0,0,1-4,.27c-4.78,0-5.66-1.46-5.66-6.29V37.57h-3.1V33.41h3.1Z" fill="#fff"/><path d="M234.58,25.27h6.1v5.22h-6.1Zm0,8.14h6.1v23.8h-6.1Z" fill="#fff"/><path d="M249.44,49.42v.8c0,2.08,1.11,3.45,3.19,3.45,1.86,0,3.1-.93,3.1-2.83a2.8,2.8,0,0,0-2.21-2.7l-4.3-1.55c-3.36-1.19-5.09-3.27-5.09-6.63,0-3.94,2.48-7.17,8.77-7.17,5.53,0,8.14,2.48,8.14,6.77v1h-5.49c0-2.39-.71-3.58-2.7-3.58A2.59,2.59,0,0,0,250,39.51c0,1.15.61,2.13,2.65,2.79l3.67,1.24c3.85,1.28,5.27,3.23,5.27,6.81,0,5-3.72,7.48-8.85,7.48-6.86,0-8.76-3-8.76-7.56v-.85Z" fill="#fff"/><path d="M266,26.59h6.1v6.82h3.54v4.16h-3.54V50.44c0,1.86.4,2.61,2.17,2.61a11.11,11.11,0,0,0,1.37-.09v4.25a36.24,36.24,0,0,1-4,.27c-4.78,0-5.66-1.46-5.66-6.29V37.57h-3.1V33.41H266Z" fill="#fff"/><path d="M302,36.28c0-4.6-.93-6.59-3.81-6.59-3.23,0-4,3.23-4,12.17,0,9.56,1.33,11.28,4.07,11.28,2.3,0,4-1.19,4-8h6.38c0,6.82-1.69,12.7-10,12.7-9.56,0-10.75-6.81-10.75-16.41S289,25,298.6,25c9.12,0,9.78,6.68,9.78,11.28Z" fill="#fff"/><path d="M312.1,25.62h6.1V35.84h.09a6.28,6.28,0,0,1,5.8-3.05c3.8,0,6.06,2.08,6.06,6.77V57.21H324V40.8c0-2.39-.79-3.32-2.61-3.32-2.08,0-3.23,1.28-3.23,3.94V57.21h-6.1Z" fill="#fff"/><path d="M346.43,54.42h-.09a6.52,6.52,0,0,1-6.06,3.41c-3.8,0-6.06-2.08-6.06-6.77V33.41h6.11V49.82c0,2.39.79,3.32,2.61,3.32,2.08,0,3.23-1.28,3.23-3.94V33.41h6.1v23.8h-5.84Z" fill="#fff"/><path d="M356.34,33.41h5.84v3.18h.09c1.24-2.3,3-3.8,5.49-3.8a8.44,8.44,0,0,1,1.11.09v5.84c-.62,0-1.29-.09-1.91-.09-2.12,0-4.51,1.1-4.51,4.29V57.21h-6.11Z" fill="#fff"/><path d="M382.54,42c0-2.3-.44-4.78-2.74-4.78-3,0-3.5,2.66-3.5,8.14,0,5.89.53,8.32,3.27,8.32,2,0,3-1.72,3-5.57h5.84c0,6.24-2.61,9.73-9.07,9.73-6.11,0-9.12-3-9.12-12.52,0-9.78,4-12.52,9.65-12.52s8.54,3.58,8.54,9.2Z" fill="#fff"/><path d="M391.56,25.62h6.11V35.84h.09a6.28,6.28,0,0,1,5.8-3.05c3.8,0,6.06,2.08,6.06,6.77V57.21h-6.11V40.8c0-2.39-.79-3.32-2.61-3.32-2.08,0-3.23,1.28-3.23,3.94V57.21h-6.11Z" fill="#fff"/><path d="M15.38,76C19,73.79,25.5,70.83,25.5,66.78c0-.07,0-17.22,0-17.22s-5.68,3.62-7.5,4.92a5.67,5.67,0,0,0-2.63,4.94Z" fill="#fff"/><path d="M53.23,85l-8.56-5.36a7.47,7.47,0,0,1-3.49-6.31V46l8.57,5.57a7.67,7.67,0,0,1,3.48,6.42Z" fill="#fff"/><path d="M26.37,48V59l2.18-1.38-.23-19.83c-1.66,1-5.11,3.19-6.62,4.17-2,1.31-2.56,3.53-2.56,6.4v4.31C21.48,51.09,26.37,48,26.37,48Z" fill="#fff"/><path d="M35.5,35.59l8.86,5.77V35.48a6.25,6.25,0,0,0-2.9-5.29l-7.68-4.9-.41,35.05,2.13,1.37Z" fill="#fff"/><path d="M40.31,44.35l8.57,5.57v-.44a7.64,7.64,0,0,0-3.46-6.4l-9.06-5.89V63.72a8,8,0,0,0,3.8,6.82l.15.09Z" fill="#fff"/><path d="M32.91,17.1,32.49,5h-3l-.41,12.1-12.12.63v3L29,21.39,29.53,67h2.89L33,21.39,45,20.76v-3Z" fill="#fff"/></svg>